<svg width="18" height="13" viewBox="0 0 18 13" fill="none" xmlns="http://www.w3.org/2000/svg">
<path d="M17.471 5.82418V11.8C17.471 11.9468 17.3452 12.0726 17.1984 12.0726H14.1162C13.9694 12.0726 13.8436 11.9468 13.8436 11.8V6.24353C13.8436 4.77579 13.3194 3.76934 11.9984 3.76934C10.992 3.76934 10.4049 4.44031 10.1323 5.09031C10.0274 5.32095 10.0065 5.65644 10.0065 5.97095V11.8C10.0065 11.9468 9.88067 12.0726 9.7339 12.0726H6.67261C6.52583 12.0726 6.40002 11.9468 6.40002 11.8C6.40002 10.3113 6.44196 3.11934 6.40002 1.44192C6.40002 1.29514 6.52583 1.16934 6.67261 1.16934H9.75486C9.90164 1.16934 10.0274 1.29514 10.0274 1.44192V2.72095C10.0274 2.74192 10.0065 2.74192 10.0065 2.76289H10.0274V2.72095C10.5097 1.98708 11.3694 0.917725 13.2984 0.917725C15.6887 0.917725 17.471 2.49031 17.471 5.82418ZM1.03228 12.0935H4.11454C4.26132 12.0935 4.38712 11.9677 4.38712 11.821V1.44192C4.38712 1.29514 4.26132 1.16934 4.11454 1.16934H1.03228C0.885511 1.16934 0.759705 1.29514 0.759705 1.44192V11.821C0.780672 11.9677 0.885511 12.0935 1.03228 12.0935Z" fill="white"/>
</svg>
